<!-- Crypto Icons SVG Sprites -->
<svg xmlns="http://www.w3.org/2000/svg" style="display: none;">
    <!-- Bitcoin -->
    <symbol id="icon-btc" viewBox="0 0 32 32">
        <path fill="#F7931A" d="M16 32C24.8366 32 32 24.8366 32 16C32 7.16344 24.8366 0 16 0C7.16344 0 0 7.16344 0 16C0 24.8366 7.16344 32 16 32Z"/>
        <path fill="#fff" d="M23.189 14.02c.314-2.096-1.283-3.223-3.465-3.975l.708-2.84-1.728-.43-.69 2.765c-.454-.114-.92-.22-1.385-.326l.695-2.783L15.596 6l-.708 2.839c-.376-.086-.745-.17-1.104-.26l.002-.009-2.384-.595-.46 1.846s1.283.294 1.256.312c.7.175.826.638.805 1.006l-.806 3.235c.048.012.11.03.18.057l-.183-.045-1.13 4.532c-.086.212-.303.531-.793.41.018.025-1.256-.313-1.256-.313l-.858 1.978 2.25.561c.418.105.828.215 1.231.318l-.715 2.872 1.727.43.708-2.84c.472.127.93.245 1.378.357l-.706 2.828 1.728.43.715-2.866c2.948.558 5.164.333 6.097-2.333.752-2.146-.037-3.385-1.588-4.192 1.13-.26 1.98-1.003 2.207-2.538zm-3.95 5.538c-.533 2.147-4.148.986-5.32.695l.95-3.805c1.172.293 4.929.872 4.37 3.11zm.535-5.569c-.487 1.953-3.495.96-4.47.717l.86-3.45c.975.243 4.118.696 3.61 2.733z"/>
    </symbol>
    
    <!-- Ethereum -->
    <symbol id="icon-eth" viewBox="0 0 32 32">
        <path fill="#627EEA" d="M16 32C24.8366 32 32 24.8366 32 16C32 7.16344 24.8366 0 16 0C7.16344 0 0 7.16344 0 16C0 24.8366 7.16344 32 16 32Z"/>
        <path fill="#fff" d="M16.498 4v8.87l7.497 3.35L16.498 4z" opacity=".6"/>
        <path fill="#fff" d="M16.498 4L9 16.22l7.498-3.35V4z"/>
        <path fill="#fff" d="M16.498 21.968v6.027L24 17.616l-7.502 4.352z" opacity=".6"/>
        <path fill="#fff" d="M16.498 27.995v-6.028L9 17.616l7.498 10.379z"/>
        <path fill="#fff" d="M16.498 20.573l7.497-4.353-7.497-3.348v7.701z" opacity=".2"/>
        <path fill="#fff" d="M9 16.22l7.498 4.353v-7.701L9 16.22z" opacity=".6"/>
    </symbol>
    
    <!-- USDT -->
    <symbol id="icon-usdt" viewBox="0 0 32 32">
        <path fill="#26A17B" d="M16 32C24.8366 32 32 24.8366 32 16C32 7.16344 24.8366 0 16 0C7.16344 0 0 7.16344 0 16C0 24.8366 7.16344 32 16 32Z"/>
        <path fill="#fff" d="M17.922 17.383v-.002c-.11.008-.677.042-1.942.042-1.01 0-1.721-.03-1.971-.042v.003c-3.888-.171-6.79-.848-6.79-1.658 0-.809 2.902-1.486 6.79-1.66v2.644c.254.018.982.061 1.988.061 1.207 0 1.812-.05 1.925-.06v-2.643c3.88.173 6.775.85 6.775 1.658 0 .81-2.895 1.485-6.775 1.657m0-3.59v-2.366h5.414V7.819H8.595v3.608h5.414v2.365c-4.4.202-7.709 1.074-7.709 2.118 0 1.044 3.309 1.915 7.709 2.118v7.582h3.913v-7.584c4.393-.202 7.694-1.073 7.694-2.116 0-1.043-3.301-1.914-7.694-2.117"/>
    </symbol>
    
    <!-- USDC -->
    <symbol id="icon-usdc" viewBox="0 0 32 32">
        <path fill="#2775CA" d="M16 32C24.8366 32 32 24.8366 32 16C32 7.16344 24.8366 0 16 0C7.16344 0 0 7.16344 0 16C0 24.8366 7.16344 32 16 32Z"/>
        <path fill="#fff" d="M16 6.82c-5.07 0-9.18 4.11-9.18 9.18 0 5.07 4.11 9.18 9.18 9.18 5.07 0 9.18-4.11 9.18-9.18 0-5.07-4.11-9.18-9.18-9.18zm0 15.75c-3.62 0-6.57-2.95-6.57-6.57 0-3.62 2.95-6.57 6.57-6.57 3.62 0 6.57 2.95 6.57 6.57 0 3.62-2.95 6.57-6.57 6.57z"/>
        <path fill="#fff" d="M16.87 14.81c0-.76-.61-1.37-1.37-1.37h-2.06v2.74h2.06c.76 0 1.37-.61 1.37-1.37z"/>
        <path fill="#fff" d="M17.93 17.44h-4.49v-6.88h4.49c1.9 0 3.44 1.54 3.44 3.44s-1.54 3.44-3.44 3.44zm-2.06-4.12h2.06c.38 0 .69.31.69.69 0 .38-.31.69-.69.69h-2.06v-1.37z"/>
    </symbol>
</svg>
